<svg width="27" height="31" viewBox="0 0 27 31" fill="none" xmlns="http://www.w3.org/2000/svg">
<path d="M11.7 28.2385C11.7 29.2326 12.5059 30.0385 13.5 30.0385C14.4941 30.0385 15.3 29.2326 15.3 28.2385L11.7 28.2385ZM14.7728 0.565733C14.0698 -0.137211 12.9302 -0.137211 12.2272 0.565733L0.772078 12.0209C0.0691344 12.7238 0.0691344 13.8635 0.772078 14.5664C1.47502 15.2694 2.61472 15.2694 3.31766 14.5664L13.5 4.38411L23.6823 14.5664C24.3853 15.2694 25.525 15.2694 26.2279 14.5664C26.9309 13.8635 26.9309 12.7238 26.2279 12.0209L14.7728 0.565733ZM15.3 28.2385L15.3 1.83853L11.7 1.83853L11.7 28.2385L15.3 28.2385Z" fill="#644F43"/>
</svg>
