<svg width="12" height="20" viewBox="0 0 12 20" fill="none" xmlns="http://www.w3.org/2000/svg">
<path fill-rule="evenodd" clip-rule="evenodd" d="M2.82494 0.559909L10.9893 8.76298C11.4903 9.26637 11.4903 10.0825 10.9893 10.5859L2.82494 18.789C2.32394 19.2923 1.51165 19.2923 1.01064 18.789C0.509636 18.2856 0.509636 17.4694 1.01064 16.9661L8.26784 9.67444L1.01064 2.38281C0.509638 1.87943 0.509638 1.06329 1.01064 0.559909C1.51165 0.0565277 2.32394 0.0565277 2.82494 0.559909Z" fill="#251A00"/>
<path fill-rule="evenodd" clip-rule="evenodd" d="M2.82494 0.559909L10.9893 8.76298C11.4903 9.26637 11.4903 10.0825 10.9893 10.5859L2.82494 18.789C2.32394 19.2923 1.51165 19.2923 1.01064 18.789C0.509636 18.2856 0.509636 17.4694 1.01064 16.9661L8.26784 9.67444L1.01064 2.38281C0.509638 1.87943 0.509638 1.06329 1.01064 0.559909C1.51165 0.0565277 2.32394 0.0565277 2.82494 0.559909Z" fill="#644F43"/>
</svg>
