<svg width="46" height="46" viewBox="0 0 46 46" fill="none" xmlns="http://www.w3.org/2000/svg">
<path d="M15.1745 25.348L8.22028 23.1006C8.22028 23.1006 7.38918 22.7661 7.65679 22.0077C7.71188 21.8513 7.82301 21.7182 8.15546 21.4895C9.69633 20.4243 36.6758 10.806 36.6758 10.806C36.6758 10.806 37.4376 10.5514 37.8868 10.7207C37.998 10.7548 38.098 10.8176 38.1766 10.9027C38.2553 10.9877 38.3098 11.092 38.3345 11.2047C38.383 11.4039 38.4033 11.6088 38.3948 11.8136C38.3926 11.9907 38.371 12.1549 38.3546 12.4123C38.1903 15.042 33.273 34.6681 33.273 34.6681C33.273 34.6681 32.9788 35.8165 31.9247 35.8558C31.6657 35.8641 31.4076 35.8206 31.1659 35.7279C30.9241 35.6351 30.7037 35.4951 30.5178 35.316C28.4492 33.5512 21.2998 28.7855 19.72 27.7374C19.6844 27.7133 19.6543 27.6819 19.632 27.6454C19.6096 27.6088 19.5954 27.5679 19.5903 27.5254C19.5682 27.415 19.6894 27.2781 19.6894 27.2781C19.6894 27.2781 32.1384 16.3025 32.4697 15.1503C32.4953 15.061 32.3984 15.017 32.2683 15.0561C31.4415 15.3578 17.1079 24.3359 15.526 25.3268C15.4121 25.3609 15.2917 25.3682 15.1745 25.348Z" fill="white"/>
</svg>
